# xmcd CD database file
#
# Track frame offsets:
#	150
#	25065
#	60974
#	79713
#	106997
#	145518
#	187262
#	221392
#	248050
#
# Disc length: 3671 seconds
#
# Revision: 0
# Processed by: cddbd v1.5.2PL0 Copyright (c) Steve Scherf et al.
# Submitted via: CDex 1.70beta2
#
DISCID=6e0e5509
DTITLE=Secret Quartet - Bloor Street
DYEAR=2010
DGENRE=Jazz
TTITLE0=Time to evolve (for Bill Hicks)
TTITLE1=Bloor Street
TTITLE2=Moon Beam
TTITLE3=Unit Sex
TTITLE4=Make some memories
TTITLE5=Salem House
TTITLE6=Mojive
TTITLE7=Changing Tides
TTITLE8=Ants
EXTD=YEAR: 2010
EXTT0=
EXTT1=
EXTT2=
EXTT3=
EXTT4=
EXTT5=
EXTT6=
EXTT7=
EXTT8=
PLAYORDER=
